<svg width="12" height="10" viewBox="0 0 12 10" fill="none" xmlns="http://www.w3.org/2000/svg">
<path d="M0.649648 0.484811C0.403798 0.542659 0.201332 0.745124 0.0769607 1.05461L0.0104364 1.21947L0.00175928 4.38661C-0.00402544 6.53852 0.00465164 7.61738 0.0248982 7.75332C0.0624989 8.00495 0.131916 8.16403 0.270749 8.31733C0.412475 8.47352 0.545523 8.55161 0.71328 8.57475L0.849221 8.59499L0.866575 8.81481C0.895499 9.17925 1.05747 9.45981 1.32357 9.616L1.45662 9.69409H6.41702H11.3774L11.4931 9.63046C11.7332 9.5032 11.9096 9.23421 11.9675 8.91605C12.0108 8.67887 12.0108 2.61359 11.9675 2.37931C11.927 2.15081 11.8489 1.98305 11.7187 1.83844C11.6001 1.70539 11.3687 1.58102 11.2415 1.58102C11.1952 1.58102 11.1605 1.57234 11.1605 1.55788C11.1605 1.54631 11.146 1.44218 11.1316 1.32649C11.0824 0.953374 10.9291 0.698846 10.663 0.551336L10.5097 0.467457L5.63608 0.461672C2.73504 0.45878 0.716173 0.47035 0.649648 0.484811ZM10.4692 0.976513C10.5589 1.02279 10.6688 1.2831 10.6688 1.44218V1.58102L6.06415 1.5868L1.45662 1.59548L1.32357 1.67357C1.15581 1.77191 1.05169 1.89339 0.953346 2.10164L0.878145 2.26072L0.869468 5.18779C0.863683 8.01363 0.860791 8.11775 0.808728 8.11775C0.72485 8.11775 0.600478 8.00495 0.542631 7.8748C0.490568 7.76199 0.487676 7.6087 0.487676 4.54569C0.487676 2.45162 0.499246 1.29757 0.5166 1.22815C0.533954 1.1703 0.583124 1.08353 0.629402 1.03436L0.71328 0.944697H5.56377C8.97965 0.944697 10.4287 0.953374 10.4692 0.976513ZM11.3196 2.10743C11.363 2.14213 11.4237 2.22312 11.4526 2.28675C11.5018 2.39955 11.5076 2.51814 11.5076 4.33165V6.25797L11.3601 6.472C11.1778 6.73231 10.9927 6.93189 10.9262 6.93189C10.8192 6.93189 10.3362 6.50671 9.23129 5.43943C8.81479 5.0345 8.38961 4.64403 8.29127 4.57172C7.82849 4.22753 7.42934 4.16679 7.01284 4.37793C6.86823 4.45024 6.49511 4.81178 3.16311 8.1004L2.00617 9.24288H1.81816C1.58967 9.24578 1.47686 9.18793 1.39588 9.02596C1.34382 8.91605 1.34092 8.80035 1.33225 5.70263C1.32646 3.3309 1.33225 2.46319 1.35828 2.37642C1.39877 2.2318 1.48843 2.10453 1.56942 2.07272C1.60124 2.05826 3.79365 2.04669 6.43437 2.04669L11.2386 2.04379L11.3196 2.10743ZM7.75618 4.79443C7.98179 4.91013 8.164 5.06631 8.83214 5.7142C9.46557 6.33027 10.0787 6.89429 10.394 7.1546C10.6023 7.32525 10.7556 7.39466 10.9291 7.39466C11.1055 7.39466 11.2212 7.3426 11.3861 7.18352L11.5076 7.06493V7.97314C11.5076 8.79457 11.5018 8.8958 11.4526 8.99992C11.4237 9.06356 11.3716 9.14165 11.334 9.17347C11.2704 9.23131 11.2241 9.23131 6.9926 9.23999C4.64111 9.24288 2.71479 9.2371 2.71479 9.22553C2.71479 9.17636 7.11986 4.86095 7.23266 4.79732C7.38885 4.71344 7.59132 4.71344 7.75618 4.79443Z" fill="white"/>
<path d="M3.48702 3.60861C3.12547 3.66935 2.96061 4.10899 3.18043 4.42137C3.32794 4.62672 3.68081 4.67589 3.88906 4.51681C4.32291 4.18708 4.025 3.51316 3.48702 3.60861Z" fill="white"/>
</svg>
