<svg style="transition: .3s" width="20" height="20" viewBox="0 0 8 8" fill="none" xmlns="http://www.w3.org/2000/svg">
<path d="M5.85345 6.73959C5.83196 6.73691 5.8052 6.62461 5.7955 6.60008C5.77171 6.53989 5.74071 6.48806 5.70964 6.43159C5.64698 6.31765 5.64776 6.17628 5.62057 6.05167C5.53696 5.66845 5.49494 5.27601 5.41022 4.89476C5.38253 4.77014 5.4027 4.6456 5.43812 4.51806C5.45282 4.46515 5.43715 4.33335 5.47139 4.29055C5.54126 4.20321 5.68077 4.12784 5.77618 4.07483C5.8637 4.02621 5.95 3.97958 6.02731 3.91492C6.09961 3.85446 6.15651 3.77232 6.23981 3.72604C6.32664 3.6778 6.41482 3.59969 6.48879 3.53394C6.50329 3.52105 6.5934 3.41958 6.54889 3.41696C6.4653 3.41204 6.38585 3.41943 6.30635 3.44593C6.21551 3.47621 6.08737 3.45769 5.99297 3.45559C5.88269 3.45314 5.72784 3.45612 5.62164 3.42662C5.37137 3.3571 5.10381 3.27395 4.86825 3.15617C4.67724 3.06067 4.5468 2.84636 4.41965 2.68289C4.29112 2.51762 4.1518 2.379 4.05691 2.18921C3.98069 2.03677 3.94819 1.86485 3.89808 1.70198C3.88891 1.67219 3.8615 1.58743 3.89271 1.56246C3.90317 1.55409 3.88305 1.62341 3.88305 1.65905C3.88305 1.76056 3.90237 1.85686 3.90237 1.95847C3.90237 2.06602 3.86373 2.17309 3.86373 2.27722C3.86373 2.41548 3.70656 2.62398 3.6169 2.71723C3.54346 2.79361 3.51847 2.85552 3.41943 2.90504C3.31305 2.95823 3.18918 3.02388 3.07171 3.04563C2.84781 3.08709 2.60342 3.12719 2.37627 3.12719C2.15853 3.12719 1.95312 3.17205 1.73665 3.18407C1.6406 3.18941 1.54191 3.20446 1.44903 3.20446C1.33894 3.20446 1.48392 3.2239 1.51879 3.23451C1.62577 3.26707 1.74174 3.28675 1.83538 3.34398C1.94238 3.40937 2.04434 3.53315 2.1348 3.61872C2.24565 3.72357 2.40154 3.83849 2.47286 3.97717C2.5238 4.07622 2.55517 4.1778 2.59843 4.27874C2.67388 4.45478 2.6466 4.65586 2.59843 4.82929C2.54103 5.03591 2.55922 5.27488 2.48252 5.47429C2.43146 5.60706 2.41787 5.75293 2.3473 5.87996C2.32118 5.92698 2.29944 5.97674 2.27539 6.02484C2.23797 6.0997 2.18902 6.16352 2.31081 6.05167C2.4459 5.92761 2.55428 5.85246 2.7197 5.79732C2.81661 5.76502 2.93375 5.68816 3.03308 5.67712C3.14407 5.66479 3.25056 5.5894 3.36577 5.58054C3.50481 5.56984 3.64571 5.52258 3.78646 5.52258C3.92361 5.52258 4.05594 5.53433 4.19213 5.5419C4.23254 5.54414 4.39905 5.59808 4.40463 5.50326C4.41417 5.34104 4.3605 5.15613 4.30804 5.0053C4.24404 4.82129 4.24615 4.61787 4.18355 4.43006C4.14878 4.32576 4.13014 4.21619 4.09555 4.11239" fill="none"  stroke-width="2" stroke-linecap="round"/>
<path d="M3.75229 0.0190006C3.58028 0.0674752 3.43799 0.142532 3.31289 0.250427C3.16903 0.373959 3.12369 0.45058 2.79218 1.12141C2.5889 1.53578 2.44661 1.8063 2.41533 1.83758C2.31838 1.93922 2.2918 1.94547 1.54592 2.05337C1.16281 2.10966 0.800036 2.16908 0.739052 2.18628C0.574864 2.23476 0.440386 2.31607 0.307472 2.44898C0.174558 2.58346 0.110447 2.6851 0.0525901 2.85867C-0.0521774 3.17141 0.000988225 3.51073 0.199577 3.79219C0.233979 3.84067 0.493552 4.1065 0.778144 4.38171C1.30667 4.8946 1.35046 4.94464 1.36766 5.07442C1.37235 5.10883 1.33013 5.39342 1.26289 5.78121C1.12216 6.59903 1.11903 6.62717 1.13936 6.78198C1.16907 7.02279 1.26445 7.21825 1.43646 7.39026C1.66476 7.62012 1.98688 7.73271 2.29336 7.69049C2.47632 7.66703 2.55294 7.63419 3.02048 7.38869C3.86019 6.94929 3.88521 6.93678 3.96339 6.92897C4.01499 6.92271 4.0619 6.92897 4.1182 6.94929C4.16198 6.96493 4.47003 7.1213 4.80466 7.29643C5.13772 7.47157 5.46454 7.63263 5.53021 7.65452C5.68189 7.70456 5.93677 7.71081 6.09471 7.66703C6.38242 7.58885 6.62792 7.38869 6.75771 7.12599C6.84215 6.95242 6.88437 6.76634 6.87186 6.6131C6.86873 6.55993 6.80931 6.19872 6.74207 5.81092C6.62949 5.15886 6.62167 5.10257 6.64043 5.03377C6.64982 4.99311 6.67484 4.93838 6.6936 4.9118C6.71236 4.88365 6.95474 4.64128 7.23151 4.37233C7.50985 4.10181 7.7616 3.84536 7.79288 3.80314C7.93361 3.60924 8.01492 3.34029 7.99772 3.12293C7.97583 2.84772 7.88357 2.64444 7.69749 2.4568C7.55832 2.31607 7.4301 2.23632 7.25966 2.18628C7.20024 2.16908 6.8359 2.1081 6.44966 2.0518C5.70534 1.94391 5.67876 1.93765 5.58338 1.83758C5.5521 1.8063 5.40981 1.53578 5.20653 1.12141C4.86721 0.434943 4.82655 0.367704 4.66862 0.23479C4.56541 0.148787 4.48879 0.105004 4.35119 0.0534019C4.24173 0.0127459 4.20264 0.00492738 4.03063 0.00179999C3.89146 -0.00289109 3.81171 0.00179999 3.75229 0.0190006ZM4.19325 0.721099C4.23078 0.742991 4.27769 0.78052 4.29646 0.803975C4.31522 0.828994 4.47315 1.13548 4.64672 1.48887C5.02514 2.25508 5.08143 2.3364 5.32537 2.48026C5.49112 2.5772 5.5865 2.5991 6.33864 2.70855C7.11892 2.82114 7.1502 2.82896 7.24089 2.93685C7.33159 3.04162 7.35661 3.2105 7.30031 3.3356C7.27999 3.37938 7.15489 3.51386 6.90626 3.75779C6.27609 4.37233 6.1682 4.48491 6.10565 4.59281C6.01965 4.74292 5.98212 4.87114 5.9743 5.06191C5.96648 5.21516 5.9743 5.27614 6.08689 5.93758C6.18227 6.4927 6.20573 6.6647 6.19791 6.72256C6.18071 6.83202 6.10565 6.93522 6.00088 6.98995C5.92583 7.02904 5.90081 7.03373 5.81324 7.02904C5.71629 7.02435 5.68814 7.01184 5.29722 6.807C4.46221 6.36916 4.38246 6.32851 4.25736 6.29723C4.10881 6.2597 3.88833 6.25658 3.76011 6.28942C3.62407 6.32538 3.5537 6.35822 2.89695 6.70379C2.34497 6.99308 2.27929 7.02279 2.19642 7.02904C2.09321 7.03686 1.99313 7.00559 1.91651 6.94148C1.85084 6.88675 1.79455 6.76009 1.79455 6.66939C1.79455 6.6303 1.84771 6.28785 1.91182 5.911C1.98688 5.47004 2.0291 5.18388 2.0291 5.10726C2.0291 4.95246 1.98375 4.77889 1.90088 4.62095C1.82738 4.48022 1.81644 4.46771 1.13154 3.79532C0.857893 3.52637 0.71716 3.37625 0.698396 3.33403C0.642103 3.2105 0.667122 3.04162 0.757816 2.93685C0.848511 2.82896 0.879784 2.82114 1.66007 2.70855C2.5201 2.58502 2.59672 2.56313 2.82346 2.37392C2.95481 2.26447 3.02048 2.15501 3.35824 1.47636C3.71789 0.7555 3.72571 0.742991 3.868 0.689826C3.9587 0.655424 4.10725 0.669498 4.19325 0.721099Z" stroke="none"/>
</svg>
