<svg width="20" height="5" viewBox="0 0 20 5" fill="none" xmlns="http://www.w3.org/2000/svg">
<path d="M1.95911 0.0843458C0.93724 0.329386 0.170837 1.15835 0.0248552 2.16458C-0.157622 3.43671 0.681772 4.6202 1.97996 4.9278C2.85064 5.13113 3.70567 4.90695 4.35738 4.30217C4.91523 3.78602 5.14985 3.25423 5.14985 2.50347C5.14985 1.76313 4.91002 1.2157 4.36259 0.70998C3.71089 0.1052 2.82457 -0.129413 1.95911 0.0843458Z" fill="#C4C4C4"/>
<path d="M9.35236 0.0842519C7.91862 0.433565 7.07401 1.93509 7.54324 3.30106C7.96554 4.52105 9.31066 5.23531 10.6193 4.92771C11.8914 4.62532 12.7621 3.37405 12.5535 2.13321C12.3033 0.668178 10.8382 -0.275488 9.35236 0.0842519Z" fill="#C4C4C4"/>
<path d="M16.7916 0.0737586C16.0774 0.245808 15.3944 0.788025 15.0816 1.4293C14.1744 3.28535 15.8375 5.34473 17.9282 4.95371C18.9657 4.75559 19.8103 3.89013 19.9719 2.86826C20.2378 1.13212 18.5538 -0.353758 16.7916 0.0737586Z" fill="#C4C4C4"/>
</svg>
