<svg width="19" height="25" viewBox="0 0 19 25" fill="none" xmlns="http://www.w3.org/2000/svg">
<path d="M8.14641 0.0459137C6.06745 0.332666 4.22962 1.24506 2.73719 2.74401C1.6358 3.83888 0.899364 5.03152 0.423613 6.47832C0.0912398 7.50803 0.00651713 8.09457 0 9.39148C0 11.0533 0.162928 11.8224 0.808124 13.1714C1.4077 14.4292 2.13762 15.5502 5.46787 20.3077C6.50409 21.7936 7.62504 23.3903 7.9509 23.8595C8.58958 24.7784 8.8633 25 9.35208 25C9.84087 25 10.1211 24.7784 10.7598 23.8595C11.0791 23.3903 12.2261 21.7545 13.308 20.2099C16.6252 15.4589 17.303 14.4162 17.896 13.1714C18.5477 11.7963 18.7042 11.0664 18.6976 9.39148C18.6976 8.38132 18.6651 8.03591 18.5543 7.52106C18.1307 5.59199 17.3225 4.09957 15.967 2.73749C14.6114 1.38192 12.9756 0.502111 11.1052 0.137154C10.4535 0.00681114 8.78509 -0.0453262 8.14641 0.0459137ZM10.3948 5.55289C12.4151 6.11988 13.6469 8.22491 13.1385 10.2192C12.6758 12.0179 11.1769 13.204 9.36511 13.204C6.43892 13.204 4.58154 10.1866 5.87845 7.54061C6.30206 6.67383 7.24053 5.88526 8.20507 5.57895C8.85026 5.37041 9.70401 5.36389 10.3948 5.55289Z" fill="#FC9763"/>
</svg>
