<svg width="30" height="14" viewBox="0 0 20 14" fill="none" xmlns="http://www.w3.org/2000/svg">
<path d="M6.36766 0.0196028C6.0083 0.0617933 0.707705 1.69667 0.492869 1.83379C0.309282 1.94981 0.0983516 2.2135 0.0397599 2.39984C0.0163232 2.48774 0.000698727 4.40739 0.000698727 8.0674C0.000698727 14.3502 -0.0305502 13.7736 0.324906 13.9354C0.481151 14.0057 0.53193 14.0127 0.656926 13.9846C0.735048 13.967 2.12172 13.5064 3.73494 12.9615L6.66843 11.97L9.7113 12.9369C11.6917 13.5697 12.8557 13.9213 13.0393 13.9459C13.258 13.9776 13.3987 13.9776 13.6252 13.9459C14.0002 13.8967 19.3594 12.2267 19.5664 12.0931C19.7266 11.9946 19.8672 11.8188 19.9453 11.629C19.9883 11.52 19.9961 10.5109 20 5.94031C20 0.585656 19.9961 0.378221 19.9258 0.262197C19.8359 0.107499 19.6602 0.0125713 19.461 0.00905514C19.3594 0.00905514 18.3829 0.311419 16.3322 0.986464C13.5237 1.90762 13.344 1.96036 13.2112 1.9252C13.1291 1.9041 11.7542 1.47517 10.1527 0.972401C8.54728 0.469632 7.15279 0.0477295 7.04733 0.0336657C6.66843 -0.00852394 6.61765 -0.00852394 6.36766 0.0196028ZM6.08252 10.5883C6.05908 10.6059 1.75064 12.0052 1.71548 12.0052C1.69595 12.0052 1.68033 10.0433 1.68033 7.5119V3.02215L3.03575 2.60024C3.78182 2.3682 4.77006 2.0588 5.23098 1.91465L6.07471 1.65096L6.08642 6.11259C6.09033 8.56666 6.09033 10.5812 6.08252 10.5883ZM10.0277 2.53696L12.2268 3.2331V7.70527V12.1774L11.7503 12.0227C11.4847 11.9384 10.4847 11.6184 9.5238 11.3125L7.77386 10.757V6.29893C7.77386 3.84837 7.78558 1.84433 7.80511 1.84433C7.82074 1.84082 8.8207 2.15373 10.0277 2.53696ZM18.3204 6.45714V10.968L16.59 11.5094C15.6408 11.8083 14.6486 12.1212 14.3869 12.2021L13.9065 12.3568V7.88106V3.40537L15.3244 2.93425C16.1017 2.67408 17.0821 2.3471 17.5001 2.20998C17.918 2.06935 18.2735 1.95333 18.293 1.94981C18.3087 1.94981 18.3204 3.97846 18.3204 6.45714Z" fill="white"/>
</svg>
