<svg width="35" height="35" viewBox="0 0 35 35" fill="none" xmlns="http://www.w3.org/2000/svg">
<circle cx="17.5" cy="17.5" r="17.5" fill="#FC9763"/>
<path d="M14.9896 7.84641C14.8254 7.87831 14.5243 7.99227 14.3236 8.09255C13.7671 8.36605 13.4432 8.6988 12.8091 9.64236C12.3073 10.3899 12.2617 10.4492 12.0291 10.5631C11.7918 10.6862 11.7508 10.6908 11.0939 10.6908C10.6697 10.6908 10.2819 10.7181 10.0858 10.7591C9.02286 10.9825 8.10139 11.8759 7.85506 12.9243C7.75014 13.371 7.75014 22.5969 7.85506 23.0436C8.04209 23.8413 8.63968 24.5934 9.37868 24.9535C10.0812 25.2954 9.58396 25.2772 17.4986 25.2772C23.552 25.2772 24.6377 25.2681 24.9114 25.2088C25.9743 24.9854 26.8958 24.092 27.1421 23.0436C27.247 22.5969 27.247 13.371 27.1421 12.9243C26.9551 12.1266 26.3575 11.3745 25.6185 11.0144C25.0939 10.7591 24.7381 10.6908 23.9033 10.6908C23.2464 10.6908 23.2053 10.6862 22.9681 10.5631C22.7355 10.4492 22.6853 10.3854 22.1653 9.61957C21.5175 8.65778 21.2347 8.36605 20.6827 8.09711C20.0532 7.78259 19.9528 7.77347 17.4758 7.77803C15.7834 7.77803 15.2177 7.79626 14.9896 7.84641ZM19.8296 9.83836C20.003 9.92953 20.1125 10.0617 20.5869 10.7637C21.189 11.6571 21.5084 11.9944 21.9782 12.2542C22.4983 12.546 22.8085 12.6143 23.7026 12.6371C24.1405 12.6462 24.5693 12.6782 24.6514 12.7055C24.8567 12.7648 25.0574 12.9425 25.176 13.1704L25.2764 13.3573V17.984V22.6106L25.1623 22.8157C25.0985 22.9251 24.957 23.0801 24.8521 23.1576L24.6514 23.2943L17.5989 23.308C12.6768 23.3171 10.4917 23.308 10.3731 23.2715C10.1496 23.2077 9.94434 23.03 9.82117 22.7975L9.72081 22.6106V17.984V13.3573L9.82117 13.1704C9.93978 12.9425 10.1405 12.7648 10.3458 12.7055C10.4279 12.6782 10.8567 12.6462 11.2946 12.6371C12.1887 12.6143 12.4989 12.546 13.019 12.2542C13.4888 11.9944 13.8081 11.6571 14.4103 10.7637C14.8847 10.0617 14.9942 9.92953 15.1675 9.83836L15.3683 9.73352H17.4986H19.6289L19.8296 9.83836Z" fill="white"/>
<path d="M16.7918 13.6722C15.5601 13.9183 14.5748 14.6659 14.0274 15.7736C13.7354 16.3707 13.6624 16.6579 13.6351 17.3279C13.5849 18.4629 13.9361 19.3928 14.7071 20.1859C15.4735 20.97 16.3949 21.3665 17.4761 21.3711C18.5435 21.3711 19.3966 21.0338 20.1584 20.3136C21.0251 19.4885 21.4174 18.5131 21.3627 17.3279C21.3262 16.4482 21.0707 15.7644 20.537 15.0807C20.058 14.4699 19.2095 13.9138 18.4568 13.7223C18.0463 13.6221 17.1932 13.5947 16.7918 13.6722ZM18.2424 15.7006C18.6028 15.8419 19.0499 16.2613 19.2323 16.6351C19.611 17.3963 19.465 18.2578 18.8628 18.8641C18.4158 19.3108 17.7999 19.5113 17.1978 19.411C15.6514 19.1467 15.0218 17.3097 16.0893 16.1838C16.3721 15.883 16.55 15.769 16.8967 15.655C17.2525 15.5365 17.8729 15.5593 18.2424 15.7006Z" fill="white"/>
</svg>
