<svg width="20" height="20" viewBox="0 0 20 20" fill="none" xmlns="http://www.w3.org/2000/svg">
<path d="M9.69221 9.06704C9.24449 9.22983 8.97209 9.64306 9.0128 10.097C9.04724 10.4601 9.22257 10.7262 9.54192 10.8984C9.72352 10.9954 9.76109 11.0048 10.0053 11.0017C10.2307 11.0017 10.2965 10.9892 10.4311 10.9203C10.6659 10.7951 10.7661 10.7012 10.8851 10.482C10.9822 10.3005 10.9915 10.2629 10.9884 10.0187C10.9884 9.70567 10.9133 9.51784 10.7098 9.31436C10.453 9.05765 10.0147 8.95122 9.69221 9.06704Z" fill="#FC9763"/>
<path d="M9.76828 2.01555C9.48024 2.09068 9.2235 2.30042 9.09826 2.56652C9.0419 2.68235 9.01686 2.79505 9.00746 2.9954L8.99494 3.27089L8.8791 3.28967C7.01619 3.61211 5.37871 4.68275 4.31732 6.2668C3.83829 6.98056 3.4344 8.00737 3.29038 8.87765L3.27159 8.99348L2.99607 9.00601C2.56087 9.02792 2.2603 9.21888 2.08184 9.57889C1.97538 9.7949 1.97225 10.1987 2.07557 10.4085C2.18203 10.6307 2.31039 10.7654 2.5233 10.8781C2.68611 10.9657 2.75812 10.9814 2.98981 10.997L3.2622 11.0127L3.34673 11.4196C3.90404 14.1119 5.99237 16.1624 8.70689 16.6852L8.99494 16.7384L9.00746 17.0108C9.02625 17.3332 9.10452 17.5273 9.30803 17.7276C9.50215 17.9249 9.68375 18 9.97179 18C10.1596 18 10.2411 17.9843 10.3819 17.9186C10.7764 17.7339 10.9768 17.4365 10.9987 16.9951L11.0113 16.7384L11.2899 16.6852C14.0264 16.1843 16.1585 14.0524 16.6876 11.2975L16.7409 11.0127L17.0133 10.997C17.4422 10.972 17.7083 10.8123 17.8962 10.4648C17.9932 10.2833 18.0026 10.2457 17.9995 10.0015C17.9995 9.68846 17.9244 9.50063 17.7209 9.29714C17.5267 9.10305 17.3326 9.02166 17.0101 9.00601L16.7346 8.99348L16.719 8.87765C16.7064 8.81504 16.6532 8.57086 16.5937 8.33607C15.9957 5.9287 14.0764 4.00656 11.6656 3.41176C11.4308 3.35228 11.1897 3.29906 11.1271 3.28654L11.0144 3.27089L10.9987 2.99227C10.9831 2.75748 10.9674 2.68861 10.8798 2.52269C10.7076 2.20025 10.432 2.02494 10.0689 2.00302C9.95614 1.99676 9.82151 1.99989 9.76828 2.01555ZM11.5967 5.54678C12.2762 5.77217 12.8178 6.1134 13.3532 6.65185C13.7634 7.06508 14.0044 7.38752 14.2455 7.84771C14.3989 8.14511 14.5993 8.66165 14.6494 8.89331L14.6713 8.99348L14.2079 9.00601C13.7978 9.01853 13.7258 9.02792 13.588 9.09366C13.3908 9.19071 13.1998 9.37854 13.1027 9.57889C12.9963 9.7949 12.9931 10.1987 13.0965 10.4085C13.2029 10.6307 13.3313 10.7654 13.5473 10.8781C13.7446 10.9845 13.7477 10.9876 14.2236 10.997C14.6682 11.0095 14.6995 11.0127 14.6995 11.069C14.6995 11.2036 14.4616 11.8517 14.2894 12.1897C13.6882 13.3762 12.5611 14.2997 11.2868 14.6472L11.0113 14.7223L10.9987 14.234C10.9893 13.7456 10.9893 13.7425 10.8829 13.5453C10.7671 13.3293 10.6324 13.2009 10.4101 13.0945C10.2004 12.9912 9.79646 12.9943 9.58043 13.1007C9.38005 13.1978 9.19219 13.3856 9.09513 13.586C9.02625 13.7268 9.01686 13.7894 9.00746 14.2183C8.99807 14.6222 8.98868 14.6973 8.94798 14.6973C8.9198 14.6973 8.75386 14.6472 8.57226 14.5877C7.37938 14.1902 6.46514 13.3887 5.8734 12.2273C5.7012 11.8892 5.50082 11.3633 5.44759 11.1097L5.4288 11.0095L5.84522 10.997C6.2178 10.9845 6.27729 10.9751 6.42131 10.9031C7.14143 10.5306 7.1383 9.47871 6.41818 9.10931C6.24911 9.02166 6.20841 9.0154 5.8327 9.00287C5.55404 8.99661 5.43194 8.98096 5.43194 8.95592C5.43194 8.87452 5.56657 8.43938 5.67302 8.18894C6.17397 6.9743 7.24475 6.01636 8.6067 5.57182C8.79143 5.51234 8.95424 5.46225 8.96676 5.46225C8.98242 5.46225 9.0012 5.64069 9.00746 5.85983C9.01999 6.20106 9.03251 6.28245 9.09513 6.41706C9.19219 6.61742 9.40196 6.82403 9.58982 6.91168C9.80898 7.01186 10.1503 7.0056 10.3819 6.89916C10.6199 6.78646 10.7984 6.62055 10.9017 6.40767C10.9831 6.24488 10.9893 6.19166 10.9987 5.81287L11.0113 5.39651L11.1396 5.41529C11.2116 5.42782 11.4183 5.4873 11.5967 5.54678Z" fill="#FC9763"/>
</svg>
