<svg width="16" height="16" viewBox="0 0 597 597" fill="none" xmlns="http://www.w3.org/2000/svg">
<path d="M437.734 0.937778C404.667 5.07111 371.6 22.1378 349.734 46.2711C333.467 64.1378 321.067 88.2711 315.867 111.604C307.334 150.404 316.8 193.871 340.934 226.538C380.134 279.604 453.867 298.271 513.6 270.271C537.734 258.938 553.734 245.204 556.534 233.338C558.934 223.471 556 213.738 548.667 207.071C541.867 200.938 538.4 199.604 529.2 199.604C520.934 199.604 516.534 201.471 506.8 209.338C498.934 215.604 484.534 222.538 474 225.071C463.734 227.604 443.2 227.338 432.8 224.538C400.534 215.871 376.4 190.004 370 157.204C367.734 146.271 368.934 126.671 372.534 115.604C383.067 82.4045 413.6 58.6711 449.067 56.1378C471.2 54.5378 495.6 63.0711 511.067 77.6045L518.667 84.8045L499.334 84.9378C477.334 84.9378 471.867 86.1378 465.2 91.8711C457.734 98.4045 454.934 105.204 455.6 115.071C456.267 125.871 460.934 132.938 470.667 137.604L477.6 141.071L527.734 140.671L577.734 140.271L583.6 136.271C586.667 134.004 590.8 129.471 592.667 126.271L596 120.271L596.4 74.9378C596.934 22.1378 596.534 18.2711 588.4 9.47111C578.134 -1.72889 562.134 -2.92889 550.667 6.53778C545.467 10.9378 540.8 19.3378 540.667 24.5378C540.667 26.2711 540.4 27.6045 540 27.6045C539.6 27.6045 533.867 24.4045 527.334 20.4045C501.467 4.80446 466.8 -2.79556 437.734 0.937778Z" fill="white"/>
<path d="M73.3333 86.271C53.6 89.2043 39.8667 96.271 25.3333 110.938C13.4667 122.671 6.66667 134.138 2.4 148.938C0.133333 157.204 0 167.071 0 340.938C0 514.804 0.133333 524.671 2.4 532.938C10.5333 561.738 34.5333 585.738 63.3333 593.871C71.6 596.138 81.4667 596.271 255.333 596.271C429.2 596.271 439.067 596.138 447.333 593.871C475.867 585.738 499.733 562.138 508.133 533.604C510.267 526.404 510.533 517.338 511.067 448.271C511.467 391.871 511.067 368.938 510 363.738C505.467 343.471 481.333 334.804 465.467 347.871C458.533 353.471 456.267 358.804 455.467 370.538L454.667 380.804L428 355.204C398.8 327.204 392.533 322.804 374.533 318.271C356.267 313.604 339.6 315.471 321.333 324.004C313.067 328.004 308.4 331.604 295.867 343.871L280.667 358.804L240.267 318.671C203.333 282.004 199.2 278.271 190 273.738C166.267 262.271 141.733 262.271 118.133 273.871C109.333 278.271 104.8 282.004 82.5333 303.871C68.5333 317.738 56.6667 328.938 56.1333 328.938C55.7333 328.938 55.4667 291.604 55.6 245.871C56 163.871 56 162.938 58.9333 157.604C62.1333 151.471 66.1333 147.604 72.6667 144.138C77.0667 141.738 82.5333 141.604 156.667 140.938C242.933 140.271 239.733 140.538 246.8 132.671C257.333 121.204 257.067 104.938 246.4 94.0043C237.467 84.9376 237.6 84.9376 154.133 85.071C113.333 85.2043 77.0667 85.7376 73.3333 86.271ZM160.933 321.338C164.667 322.538 189.867 346.804 274.533 430.804C334.4 490.004 383.333 539.071 383.333 539.738C383.333 540.538 321.467 540.804 230.4 540.671C83.8667 540.271 77.0667 540.138 72.6667 537.738C66.1333 534.271 62.1333 530.404 58.9333 524.271C56.1333 519.071 56 517.338 55.6 464.404L55.2 410.004L98.2667 366.671C146.933 317.871 147.867 317.204 160.933 321.338ZM369.2 375.738C371.733 377.471 392 397.604 414.533 420.404L455.333 462.004V486.938C455.333 512.004 454 522.138 450.4 525.071C448.8 526.538 437.733 516.004 384.267 462.538L320 398.271L330.667 387.604C336.533 381.738 343.733 375.738 346.667 374.138C353.6 370.671 362.933 371.338 369.2 375.738Z" fill="white"/>
</svg>
