<svg width="18" height="16" viewBox="0 0 18 16" fill="none" xmlns="http://www.w3.org/2000/svg">
<path d="M6.84948 0.7257C6.70872 0.75305 6.45066 0.850726 6.27861 0.936682C5.80158 1.17111 5.52397 1.45632 4.98047 2.26509C4.55036 2.90585 4.51126 2.95664 4.31185 3.05432C4.10852 3.15981 4.07333 3.16372 3.51028 3.16372C3.14665 3.16372 2.81429 3.18716 2.64616 3.22232C1.73511 3.41377 0.945279 4.17955 0.734136 5.07818C0.644204 5.46108 0.644204 13.369 0.734136 13.7519C0.894449 14.4356 1.40667 15.0803 2.0401 15.389C2.64225 15.682 2.21605 15.6664 9.00002 15.6664C14.1887 15.6664 15.1193 15.6585 15.3539 15.6078C16.2649 15.4163 17.0548 14.6505 17.2659 13.7519C17.3558 13.369 17.3558 5.46108 17.2659 5.07818C17.1056 4.39444 16.5934 3.74978 15.9599 3.44112C15.5103 3.22232 15.2053 3.16372 14.4898 3.16372C13.9267 3.16372 13.8915 3.15981 13.6882 3.05432C13.4888 2.95664 13.4458 2.90194 13 2.24555C12.4448 1.42116 12.2024 1.17111 11.7292 0.940589C11.1897 0.671 11.1036 0.663187 8.98047 0.667094C7.52983 0.667094 7.04499 0.682722 6.84948 0.7257ZM10.9981 2.43309C11.1466 2.51123 11.2405 2.62454 11.6471 3.22623C12.1633 3.99202 12.437 4.28114 12.8397 4.50384C13.2855 4.7539 13.5513 4.8125 14.3177 4.83204C14.6931 4.83985 15.0606 4.8672 15.131 4.89064C15.307 4.94143 15.479 5.09381 15.5807 5.28916L15.6667 5.44936V9.41504V13.3807L15.5689 13.5565C15.5142 13.6503 15.393 13.7831 15.3031 13.8496L15.131 13.9668L9.08604 13.9785C4.86708 13.9863 2.99416 13.9785 2.89249 13.9472C2.7009 13.8925 2.52495 13.7402 2.41938 13.5409L2.33335 13.3807V9.41504V5.44936L2.41938 5.28916C2.52104 5.09381 2.69308 4.94143 2.86903 4.89064C2.93941 4.8672 3.30696 4.83985 3.68233 4.83204C4.4487 4.8125 4.71459 4.7539 5.16033 4.50384C5.56307 4.28114 5.83677 3.99202 6.3529 3.22623C6.75955 2.62454 6.85339 2.51123 7.00198 2.43309L7.17402 2.34323H9.00002H10.826L10.9981 2.43309Z" fill="white"/>
<path d="M8.39388 5.71931C7.33816 5.93029 6.49358 6.57105 6.02438 7.52047C5.77413 8.0323 5.71157 8.27844 5.68811 8.85278C5.6451 9.82564 5.94617 10.6227 6.60698 11.3025C7.26387 11.9745 8.0537 12.3145 8.98039 12.3184C9.89534 12.3184 10.6265 12.0292 11.2795 11.4119C12.0224 10.7047 12.3587 9.86862 12.3118 8.85278C12.2805 8.09872 12.0615 7.51266 11.604 6.92659C11.1935 6.40305 10.4662 5.92638 9.82105 5.76228C9.46915 5.67633 8.73796 5.65289 8.39388 5.71931ZM9.63728 7.45796C9.94617 7.57908 10.3294 7.93853 10.4858 8.25891C10.8103 8.91139 10.6852 9.64983 10.169 10.1695C9.78586 10.5524 9.258 10.7243 8.74187 10.6383C7.41636 10.4117 6.87677 8.83715 7.79173 7.87211C8.03415 7.61424 8.18664 7.51656 8.48381 7.41889C8.78879 7.3173 9.32056 7.33684 9.63728 7.45796Z" fill="white"/>
</svg>
