<svg width="32" height="32" viewBox="0 0 32 32" fill="none" xmlns="http://www.w3.org/2000/svg">
<path d="M28.0339 13.0261L19.5509 4.537C18.5011 3.48956 17.0789 2.90137 15.5964 2.90137C14.1138 2.90137 12.6916 3.48956 11.6418 4.537L3.15885 13.0261C2.84618 13.337 2.59828 13.7068 2.42954 14.1143C2.26079 14.5217 2.17454 14.9586 2.17579 15.3996V26.3854C2.17579 27.2757 2.52928 28.1296 3.15849 28.7592C3.7877 29.3888 4.6411 29.7425 5.53093 29.7425H25.6618C26.5516 29.7425 27.405 29.3888 28.0342 28.7592C28.6634 28.1296 29.0169 27.2757 29.0169 26.3854V15.3996C29.0182 14.9586 28.9319 14.5217 28.7632 14.1143C28.5944 13.7068 28.3465 13.337 28.0339 13.0261ZM18.9515 27.5044H12.2412V23.1021C12.2412 22.2117 12.5947 21.3578 13.2239 20.7282C13.8531 20.0986 14.7065 19.7449 15.5964 19.7449C16.4862 19.7449 17.3396 20.0986 17.9688 20.7282C18.598 21.3578 18.9515 22.2117 18.9515 23.1021V27.5044ZM26.7801 26.3854C26.7801 26.6821 26.6623 26.9668 26.4526 27.1766C26.2428 27.3865 25.9584 27.5044 25.6618 27.5044H21.1882V23.1021C21.1882 21.6181 20.5991 20.1949 19.5504 19.1456C18.5017 18.0963 17.0794 17.5068 15.5964 17.5068C14.1133 17.5068 12.691 18.0963 11.6423 19.1456C10.5936 20.1949 10.0045 21.6181 10.0045 23.1021V27.5044H5.53093C5.23432 27.5044 4.94986 27.3865 4.74012 27.1766C4.53038 26.9668 4.41255 26.6821 4.41255 26.3854V15.3996C4.41359 15.1031 4.53131 14.8188 4.74024 14.6085L13.2232 6.1227C13.8536 5.49483 14.7069 5.14234 15.5964 5.14234C16.4858 5.14234 17.3391 5.49483 17.9696 6.1227L26.4525 14.6118C26.6606 14.8214 26.7782 15.1042 26.7801 15.3996V26.3854Z" fill="#FC9763"/>
</svg>
