<svg width="7" height="7" viewBox="0 0 7 7" fill="none" xmlns="http://www.w3.org/2000/svg">
<g clip-path="url(#clip0_556_1003)">
<path d="M4.95829 6.125V5.54167C4.95829 5.23225 4.83538 4.9355 4.61658 4.71671C4.39779 4.49792 4.10105 4.375 3.79163 4.375H1.45829C1.14887 4.375 0.852127 4.49792 0.633335 4.71671C0.414542 4.9355 0.291626 5.23225 0.291626 5.54167V6.125" stroke="white" stroke-width="0.5" stroke-linecap="round" stroke-linejoin="round"/>
<path d="M2.62504 3.20833C3.26937 3.20833 3.79171 2.686 3.79171 2.04167C3.79171 1.39733 3.26937 0.875 2.62504 0.875C1.98071 0.875 1.45837 1.39733 1.45837 2.04167C1.45837 2.686 1.98071 3.20833 2.62504 3.20833Z" stroke="white" stroke-width="0.5" stroke-linecap="round" stroke-linejoin="round"/>
<path d="M6.70837 6.12493V5.54159C6.70818 5.2831 6.62214 5.03198 6.46377 4.82768C6.3054 4.62338 6.08366 4.47747 5.83337 4.41284" stroke="white" stroke-width="0.5" stroke-linecap="round" stroke-linejoin="round"/>
<path d="M4.66663 0.912842C4.91758 0.977096 5.14001 1.12305 5.29885 1.32768C5.4577 1.53232 5.54391 1.784 5.54391 2.04305C5.54391 2.3021 5.4577 2.55378 5.29885 2.75842C5.14001 2.96305 4.91758 3.109 4.66663 3.17326" stroke="white" stroke-width="0.5" stroke-linecap="round" stroke-linejoin="round"/>
</g>
<defs>
<clipPath id="clip0_556_1003">
<rect width="7" height="7" fill="white"/>
</clipPath>
</defs>
</svg>
