<svg width="30" height="25" viewBox="0 0 22 25" fill="none" xmlns="http://www.w3.org/2000/svg">
<path d="M7.15084 0.100203C6.98883 0.184002 6.88827 0.329253 6.60335 0.882326L6.2514 1.56389H3.419C0.692738 1.56389 0.581006 1.56948 0.402235 1.67562C0.0391062 1.89909 0 2.03316 0 3.12814C0 4.22311 0.0391062 4.35719 0.402235 4.58065C0.586592 4.69238 0.709497 4.69238 10.9218 4.69238C20.6536 4.69238 21.2682 4.6868 21.4469 4.59182C21.8436 4.39629 21.8715 4.30132 21.8883 3.16724C21.8995 2.2287 21.8939 2.13372 21.7877 1.96613C21.7263 1.86557 21.5978 1.73707 21.4972 1.67562C21.3184 1.56948 21.2067 1.56389 18.4805 1.56389H15.6481L15.2961 0.882326C15.0112 0.329253 14.9106 0.184002 14.7486 0.100203C14.5643 0.0052309 14.3464 -0.000355721 10.9497 -0.000355721C7.55308 -0.000355721 7.3352 0.0052309 7.15084 0.100203Z" fill="#FA7564"/>
<path d="M1.57563 14.7318L1.59239 23.2123L1.72088 23.5196C1.97786 24.1508 2.44155 24.6145 3.07283 24.8715L3.3801 25H10.9499H18.5198L18.827 24.8715C19.4583 24.6145 19.922 24.1508 20.179 23.5196L20.3075 23.2123L20.3242 14.7318L20.3354 6.25698H10.9499H1.56445L1.57563 14.7318ZM6.63708 9.4972C6.73764 9.55865 6.86613 9.68715 6.92758 9.7877C7.03932 9.96648 7.03932 10.0838 7.03932 15.6425C7.03932 21.2011 7.03932 21.3184 6.92758 21.4972C6.60915 22.0223 5.90524 22.0223 5.5868 21.4972C5.47507 21.3184 5.47507 21.2011 5.47507 15.6425C5.47507 10.0838 5.47507 9.96648 5.5868 9.7877C5.73205 9.55307 6.01138 9.38547 6.25719 9.38547C6.36334 9.38547 6.53652 9.43575 6.63708 9.4972ZM11.3298 9.4972C11.4304 9.55865 11.5589 9.68715 11.6203 9.7877C11.7321 9.96648 11.7321 10.0838 11.7321 15.6425C11.7321 21.2011 11.7321 21.3184 11.6203 21.4972C11.3019 22.0223 10.598 22.0223 10.2795 21.4972C10.1678 21.3184 10.1678 21.2011 10.1678 15.6425C10.1678 10.0838 10.1678 9.96648 10.2795 9.7877C10.4248 9.55307 10.7041 9.38547 10.9499 9.38547C11.0561 9.38547 11.2293 9.43575 11.3298 9.4972ZM16.0226 9.4972C16.1231 9.55865 16.2516 9.68715 16.3131 9.7877C16.4248 9.96648 16.4248 10.0838 16.4248 15.6425C16.4248 21.2011 16.4248 21.3184 16.3131 21.4972C15.9946 22.0223 15.2907 22.0223 14.9723 21.4972C14.8605 21.3184 14.8605 21.2011 14.8605 15.6425C14.8605 10.0838 14.8605 9.96648 14.9723 9.7877C15.1175 9.55307 15.3969 9.38547 15.6427 9.38547C15.7488 9.38547 15.922 9.43575 16.0226 9.4972Z" fill="#FA7564"/>
</svg>
