<svg width="20" height="19" viewBox="0 0 20 19" fill="none" xmlns="http://www.w3.org/2000/svg">
<path fill-rule="evenodd" clip-rule="evenodd" d="M7.6771 13.4204C11.383 13.4204 14.3873 10.4161 14.3873 6.71018C14.3873 3.00425 11.383 0 7.6771 0C3.97117 0 0.966919 3.00425 0.966919 6.71018C0.966919 10.4161 3.97117 13.4204 7.6771 13.4204ZM7.78179 11.5331C10.3875 11.5331 12.4999 9.42074 12.4999 6.81501C12.4999 4.20927 10.3875 2.09691 7.78179 2.09691C5.17605 2.09691 3.06369 4.20927 3.06369 6.81501C3.06369 9.42074 5.17605 11.5331 7.78179 11.5331Z" fill="black"/>
<rect x="10.6125" y="12.0542" width="2.51632" height="9.82288" transform="rotate(-45 10.6125 12.0542)" fill="black"/>
</svg>
