<svg width="20" height="20" viewBox="0 0 20 20" fill="none" xmlns="http://www.w3.org/2000/svg">
<path d="M4.3979 4.01824C3.74497 4.10325 3.21534 4.59576 3.05281 5.27003C2.99676 5.49577 2.99676 5.58372 3.00237 9.92543L3.01078 14.3522L3.08364 14.5456C3.2826 15.0792 3.60486 15.4105 4.11767 15.604L4.29982 15.6714H9.31589H14.332L14.4917 15.5893C14.5786 15.5453 14.6907 15.4603 14.7383 15.4046C14.7859 15.346 15.3856 14.1235 16.075 12.687C17.2239 10.2831 17.3248 10.0574 17.336 9.89612C17.3612 9.56191 17.1707 9.22478 16.8736 9.08113L16.7419 9.01663L11.6698 9.00784C6.07086 9.00197 6.43516 8.99025 6.18575 9.18667C6.07366 9.27461 6.0008 9.4124 5.1349 11.2153L4.20455 13.1502L4.21015 9.31859L4.21575 5.48991L4.28581 5.41075C4.42873 5.24658 4.41191 5.24951 6.06526 5.24951C7.39634 5.24951 7.60651 5.25538 7.67937 5.29642C7.727 5.31987 8.12493 5.69512 8.56769 6.129L9.37194 6.92053H11.4036C13.6482 6.92053 13.5501 6.91174 13.6846 7.10522C13.7379 7.18144 13.7435 7.23714 13.7519 7.68568L13.7603 8.18112L14.3544 8.17526L14.9485 8.16647V7.62412C14.9457 7.19024 14.9373 7.04659 14.8952 6.90587C14.8168 6.6303 14.6654 6.35766 14.4917 6.1759C14.3067 5.98535 14.2619 5.95017 14.0629 5.84756C13.7351 5.6746 13.7911 5.67753 11.7455 5.66873L9.85673 5.65701L9.14776 4.97687C8.61813 4.46384 8.39675 4.27036 8.26224 4.2C7.89514 4.00651 7.93717 4.00944 6.17735 4.00065C5.29743 3.99772 4.49878 4.00651 4.3979 4.01824Z" fill="#FC9763"/>
</svg>
