<svg width="14" height="14" viewBox="0 0 14 14" fill="none" xmlns="http://www.w3.org/2000/svg">
<circle cx="7" cy="7" r="6.5" stroke="#FF0000"/>
<path d="M6.5084 7.68L6.2684 3H7.7484L7.4984 7.68H6.5084ZM7.0084 10.07C6.77507 10.07 6.58173 9.99333 6.4284 9.84C6.27507 9.68667 6.1984 9.50333 6.1984 9.29C6.1984 9.07667 6.27507 8.89667 6.4284 8.75C6.58173 8.59667 6.77507 8.52 7.0084 8.52C7.24173 8.52 7.43173 8.59667 7.5784 8.75C7.72507 8.89667 7.7984 9.07667 7.7984 9.29C7.7984 9.50333 7.72507 9.68667 7.5784 9.84C7.43173 9.99333 7.24173 10.07 7.0084 10.07Z" fill="#FF0000"/>
</svg>
