<svg width="20" height="20" viewBox="0 0 20 20" fill="none" xmlns="http://www.w3.org/2000/svg">
<path d="M15.3038 3.02371C15.2564 3.03233 15.1228 3.07112 15.002 3.1056C14.7864 3.17456 4.76601 7.83352 4.06751 8.19124C3.39488 8.53603 3.04132 8.99718 3.00252 9.56609C2.98096 9.96259 3.09737 10.2815 3.37332 10.5789C3.71826 10.9452 3.95541 11.0487 5.85687 11.6822C6.83132 12.0055 7.65055 12.2899 7.67642 12.3201C7.7066 12.3459 7.97393 13.1131 8.27575 14.0268C8.91388 15.9576 9.03461 16.2334 9.37092 16.5739C10.1427 17.3454 11.2508 17.0394 11.8243 15.8973C12.1649 15.2163 16.8259 5.20881 16.8992 4.99763C17.0156 4.67008 17.0328 4.13135 16.9423 3.85121C16.8302 3.52366 16.4594 3.15732 16.1446 3.0625C15.929 2.99785 15.5065 2.98062 15.3038 3.02371ZM14.7519 5.2907C14.6657 5.51912 10.4316 14.544 10.4144 14.544C10.3971 14.544 10.1082 13.7122 9.77191 12.695L9.15534 10.8418L7.3013 10.2255C6.28373 9.88933 5.45157 9.60057 5.45157 9.58764C5.45157 9.56178 14.67 5.24329 14.739 5.23898C14.7563 5.23467 14.7649 5.26053 14.7519 5.2907Z" fill="#FC9763"/>
</svg>
