<svg width="22" height="22" viewBox="0 0 20 20" fill="none" xmlns="http://www.w3.org/2000/svg">
<path d="M14.1945 3.04939C13.9811 3.10409 13.8827 3.15059 13.694 3.27639C13.5107 3.39947 7.52933 9.37814 7.40352 9.56685C7.34609 9.65163 7.27224 9.79112 7.24216 9.87317C7.18199 10.0345 6.50098 13.0293 6.50098 13.136C6.50098 13.2837 6.65687 13.4642 6.80456 13.4861C6.88934 13.4998 8.1994 13.229 9.5915 12.9117C10.36 12.734 9.96073 13.0813 13.56 9.47933C16.9978 6.04419 16.8337 6.2247 16.9486 5.7707C17.0416 5.40147 17.0115 5.11704 16.8337 4.74508C16.7298 4.52355 16.6942 4.48252 16.1035 3.8945C15.5729 3.36391 15.458 3.26272 15.2885 3.1752C14.9384 2.99743 14.5637 2.95367 14.1945 3.04939ZM15.1763 4.82166C15.644 5.28934 15.6905 5.34404 15.6905 5.42882C15.6905 5.51908 15.5127 5.69959 12.7039 8.51388C11.0602 10.1576 9.68449 11.5196 9.6462 11.5388C9.56689 11.5798 8.14743 11.8998 8.13102 11.8806C8.11461 11.867 8.43187 10.4475 8.47016 10.3518C8.48657 10.3108 9.84312 8.9378 11.4868 7.29408C14.2984 4.48526 14.4789 4.30748 14.5692 4.30748C14.654 4.30748 14.7087 4.35398 15.1763 4.82166Z" fill="#FC9763"/>
<path d="M4.54543 4.78895C4.4415 4.81083 4.23637 4.88467 4.09415 4.95578C3.87262 5.06244 3.79604 5.11988 3.58545 5.33047C3.37485 5.54107 3.31742 5.61765 3.21076 5.83918C2.98649 6.29866 3.00016 5.97319 3.00016 10.8579C3.00016 15.5812 2.99469 15.387 3.15059 15.7754C3.32289 16.1993 3.69485 16.5959 4.10783 16.7928C4.56184 17.0143 4.23911 17.0006 9.19489 16.9924L13.5982 16.9842L13.817 16.9104C14.4789 16.6861 14.9438 16.1829 15.1161 15.5073C15.1654 15.3132 15.1736 15.119 15.2146 13.3768C15.2474 11.8616 15.2501 11.4377 15.2228 11.342C15.1763 11.1751 14.9848 10.97 14.8235 10.9153C14.5582 10.825 14.3449 10.8743 14.1452 11.0767C14.0577 11.1615 13.9948 11.2544 13.9729 11.3256C13.9483 11.4103 13.9401 11.9136 13.9401 13.2783C13.9401 14.6431 13.9319 15.1463 13.9073 15.2311C13.8635 15.3815 13.6365 15.6085 13.4861 15.6523C13.322 15.6988 4.93106 15.6988 4.76696 15.6523C4.61653 15.6085 4.38953 15.3815 4.34577 15.2311C4.29928 15.067 4.29928 6.67608 4.34577 6.51198C4.38953 6.36156 4.61653 6.13456 4.76696 6.0908C4.85174 6.06618 5.40421 6.05798 6.944 6.05798C9.29335 6.05798 9.17575 6.06892 9.38087 5.83918C9.55591 5.645 9.6024 5.44261 9.53129 5.19919C9.48753 5.04877 9.26053 4.82177 9.11011 4.77801C8.93233 4.72604 4.80525 4.73425 4.54543 4.78895Z" fill="#FC9763"/>
</svg>
