<svg width="38" height="32" viewBox="0 0 38 32" fill="none" xmlns="http://www.w3.org/2000/svg">
<path fill-rule="evenodd" clip-rule="evenodd" d="M3.86367 0.637252C2.15893 0.859224 0.776107 2.14513 0.351751 3.90559C0.205421 4.49496 0.205421 4.72459 0.220054 16.0604L0.242003 27.6182L0.432232 28.1234C0.951703 29.5165 1.7931 30.3814 3.13202 30.8866L3.60759 31.0626H16.7041H29.8006L30.2177 30.8483C30.4445 30.7335 30.7372 30.5115 30.8615 30.3661C30.9859 30.213 32.5517 27.0212 34.3515 23.2707C37.3513 16.9942 37.6147 16.4049 37.6439 15.9839C37.7098 15.1113 37.2123 14.2311 36.4367 13.856L36.0928 13.6876L22.85 13.6647C21.9991 13.6638 21.201 13.6628 20.4523 13.662C9.81567 13.6494 9.14016 13.6486 8.71872 13.9754C8.69014 13.9976 8.66273 14.0213 8.63346 14.0465C8.60272 14.0731 8.56994 14.1014 8.53159 14.1316C8.23893 14.3612 8.0487 14.7209 5.78791 19.4283L3.35883 24.48L3.37346 14.476L3.3881 4.47965L3.57101 4.27299C3.5742 4.26932 3.57736 4.26569 3.5805 4.26208C3.63347 4.20118 3.67858 4.14932 3.73027 4.10516C4.02671 3.85188 4.53957 3.8519 7.99376 3.852C8.06684 3.85201 8.14124 3.85201 8.21698 3.85201C11.6923 3.85201 12.2411 3.86732 12.4313 3.97448C12.5557 4.03571 13.5946 5.01544 14.7506 6.14826L16.8504 8.21489H22.1549C22.4102 8.21489 22.6538 8.21485 22.8864 8.21481C27.1399 8.21405 27.6991 8.21395 27.9611 8.49294C28.0007 8.53517 28.0336 8.58379 28.0714 8.63977C28.0838 8.65808 28.0967 8.67719 28.1105 8.69711C28.2495 8.89612 28.2642 9.04154 28.2861 10.2126L28.3081 11.5062L29.8592 11.4909L31.4103 11.4679V10.0519C31.403 8.91908 31.381 8.54402 31.2713 8.17662C31.0664 7.45713 30.6713 6.74529 30.2177 6.27073C29.7348 5.77321 29.6177 5.68136 29.0983 5.41346C29.0775 5.40249 29.0573 5.3918 29.0376 5.38137C28.912 5.31489 28.8067 5.25912 28.6976 5.21225C28.1296 4.9683 27.4581 4.96543 23.2911 4.9476L23.0475 4.94656L18.1162 4.91594L16.2651 3.14017C14.8823 1.80069 14.3043 1.29551 13.9531 1.11181C13.9335 1.10145 13.9143 1.09131 13.8955 1.08138C13.7189 0.988127 13.5775 0.913469 13.4302 0.853528C12.8386 0.612868 12.1506 0.609444 8.69995 0.592276L8.50964 0.591327C6.21226 0.583673 4.12706 0.606636 3.86367 0.637252ZM16.8624 21.9821C16.8624 21.4299 17.3101 20.9821 17.8624 20.9821H20.0713V18.7731C20.0713 18.2208 20.519 17.7731 21.0713 17.7731C21.6236 17.7731 22.0713 18.2208 22.0713 18.7731V20.9821H24.28C24.8323 20.9821 25.28 21.4299 25.28 21.9821C25.28 22.5344 24.8323 22.9821 24.28 22.9821H22.0713V25.1907C22.0713 25.7429 21.6236 26.1907 21.0713 26.1907C20.519 26.1906 20.0713 25.7429 20.0713 25.1906V22.9821H17.8624C17.3101 22.9821 16.8624 22.5344 16.8624 21.9821Z" fill="#FC9763"/>
</svg>
