<svg width="12" height="14" viewBox="0 0 12 14" fill="none" xmlns="http://www.w3.org/2000/svg">
<path d="M3.91964 0.0551207C3.83084 0.101054 3.77572 0.180672 3.61954 0.483832L3.42662 0.857422H1.87408C0.379715 0.857422 0.318471 0.860485 0.22048 0.918667C0.0214355 1.04116 0 1.11465 0 1.71484C0 2.31504 0.0214355 2.38853 0.22048 2.51102C0.321533 2.57227 0.388902 2.57227 5.98664 2.57227C11.321 2.57227 11.6579 2.5692 11.7559 2.51715C11.9733 2.40997 11.9886 2.35791 11.9978 1.73628C12.0039 1.22183 12.0008 1.16977 11.9427 1.0779C11.909 1.02278 11.8385 0.952351 11.7834 0.918667C11.6854 0.860485 11.6242 0.857422 10.1298 0.857422H8.57728L8.38436 0.483832C8.22819 0.180672 8.17307 0.101054 8.08426 0.0551207C7.98321 0.00306296 7.86378 7.15256e-07 6.00195 7.15256e-07C4.14012 7.15256e-07 4.0207 0.00306296 3.91964 0.0551207Z" fill="#767676"/>
<path d="M0.863546 8.07476L0.872733 12.7232L0.943164 12.8916C1.08403 13.2377 1.33819 13.4918 1.68422 13.6327L1.85264 13.7031H6.00195H10.1513L10.3197 13.6327C10.6657 13.4918 10.9199 13.2377 11.0607 12.8916L11.1312 12.7232L11.1404 8.07476L11.1465 3.42938H6.00195H0.857422L0.863546 8.07476ZM3.63792 5.20546C3.69304 5.23915 3.76347 5.30958 3.79715 5.3647C3.8584 5.46269 3.8584 5.527 3.8584 8.57391C3.8584 11.6208 3.8584 11.6851 3.79715 11.7831C3.62261 12.071 3.23677 12.071 3.06222 11.7831C3.00098 11.6851 3.00098 11.6208 3.00098 8.57391C3.00098 5.527 3.00098 5.46269 3.06222 5.3647C3.14184 5.23609 3.29495 5.14422 3.42969 5.14422C3.48787 5.14422 3.5828 5.17178 3.63792 5.20546ZM6.21018 5.20546C6.2653 5.23915 6.33573 5.30958 6.36942 5.3647C6.43066 5.46269 6.43066 5.527 6.43066 8.57391C6.43066 11.6208 6.43066 11.6851 6.36942 11.7831C6.19487 12.071 5.80903 12.071 5.63449 11.7831C5.57324 11.6851 5.57324 11.6208 5.57324 8.57391C5.57324 5.527 5.57324 5.46269 5.63449 5.3647C5.7141 5.23609 5.86721 5.14422 6.00195 5.14422C6.06013 5.14422 6.15506 5.17178 6.21018 5.20546ZM8.78245 5.20546C8.83757 5.23915 8.908 5.30958 8.94168 5.3647C9.00293 5.46269 9.00293 5.527 9.00293 8.57391C9.00293 11.6208 9.00293 11.6851 8.94168 11.7831C8.76714 12.071 8.3813 12.071 8.20675 11.7831C8.14551 11.6851 8.14551 11.6208 8.14551 8.57391C8.14551 5.527 8.14551 5.46269 8.20675 5.3647C8.28637 5.23609 8.43948 5.14422 8.57422 5.14422C8.6324 5.14422 8.72733 5.17178 8.78245 5.20546Z" fill="#767676"/>
</svg>
