<svg width="20" height="20" viewBox="0 0 20 20" fill="none" xmlns="http://www.w3.org/2000/svg">
<path d="M9.3875 2.56062C9.02462 2.63889 8.83962 2.70293 8.53366 2.85591C7.64781 3.29706 7.00031 4.10821 6.75128 5.08656C6.65522 5.47079 6.66233 6.23925 6.76906 6.63415C6.92916 7.22828 7.24579 7.76549 7.70117 8.20308C8.00357 8.49125 8.18501 8.62288 8.53366 8.79365C9.48712 9.27038 10.5758 9.28817 11.5292 8.8399C11.9419 8.64423 12.134 8.51615 12.4613 8.20308C12.7815 7.89356 12.9879 7.60895 13.1764 7.21761C13.4112 6.72309 13.4717 6.43492 13.4717 5.81589C13.4717 5.3356 13.4646 5.25022 13.3756 4.96205C13.0732 3.96234 12.4542 3.2437 11.5221 2.8061C11.1023 2.60687 10.7181 2.52505 10.1702 2.5037C9.80019 2.49303 9.64366 2.5037 9.3875 2.56062ZM10.7394 4.11888C11.4687 4.38571 11.9668 5.07233 11.9668 5.81589C11.9668 6.60569 11.4723 7.28164 10.6932 7.54847C10.3552 7.66231 9.80731 7.66231 9.46933 7.54847C8.69732 7.28164 8.19569 6.60924 8.19569 5.83723C8.19569 5.0083 8.74357 4.31099 9.58318 4.06907C9.83577 3.99436 10.4761 4.02282 10.7394 4.11888Z" fill="#FC9763"/>
<path d="M7.9041 9.98189C6.66603 10.174 5.56316 10.9567 4.90143 12.1236C4.63105 12.5968 4.58124 12.7426 4.04759 14.7634C3.98355 15.016 3.98355 15.5461 4.05115 15.8129C4.23615 16.5458 4.76268 17.1221 5.49912 17.3889L5.75883 17.485L9.9711 17.4957C14.6423 17.5063 14.3648 17.517 14.8771 17.268C15.3361 17.0438 15.7665 16.5209 15.98 15.9303C16.0618 15.7026 16.0725 15.6172 16.0761 15.2259C16.0761 14.7812 16.0761 14.7812 15.7986 13.7708C15.489 12.6252 15.3681 12.3015 15.0941 11.8639C14.468 10.8606 13.3936 10.1527 12.2267 9.97833C11.7464 9.90718 8.37015 9.90718 7.9041 9.98189ZM12.4117 11.5722C13.141 11.8283 13.6746 12.3122 14.034 13.0379C14.1727 13.319 14.2581 13.5751 14.4431 14.2795C14.6992 15.2437 14.7064 15.3219 14.5534 15.6208C14.4609 15.8093 14.3043 15.9196 14.0624 15.9694C13.8169 16.0228 6.31382 16.0228 6.1146 15.9694C5.85489 15.9018 5.492 15.45 5.492 15.1903C5.492 15.1618 5.59518 14.7456 5.72325 14.2653C5.97229 13.3332 6.1146 12.9703 6.39921 12.5719C6.68026 12.1805 7.18901 11.7856 7.63728 11.6149C8.02862 11.4654 8.13179 11.4619 10.1703 11.4654L12.127 11.4725L12.4117 11.5722Z" fill="#FC9763"/>
</svg>
