<svg width="11" height="11" viewBox="0 0 11 11" fill="none" xmlns="http://www.w3.org/2000/svg">
<path d="M1.01643 5.72251L2.50058 6.84169L1.93694 8.644C1.84585 8.92353 1.8447 9.22597 1.93365 9.50624C2.0226 9.7865 2.19689 10.0296 2.43054 10.1992C2.66019 10.3743 2.93849 10.4681 3.22396 10.4667C3.50944 10.4652 3.78681 10.3685 4.01475 10.1911L5.46596 9.08823L6.9176 10.1898C7.14683 10.3639 7.42362 10.4584 7.70818 10.4598C7.99275 10.4613 8.27042 10.3695 8.50128 10.1977C8.73215 10.0259 8.90431 9.783 8.99302 9.50382C9.08173 9.22464 9.08242 8.92361 8.99499 8.644L8.43134 6.84169L9.91549 5.72251C10.1444 5.54969 10.3146 5.30659 10.4017 5.02793C10.4889 4.74927 10.4885 4.44931 10.4006 4.1709C10.3128 3.89248 10.142 3.64985 9.91258 3.47766C9.6832 3.30547 9.40699 3.21253 9.12339 3.21211H7.3003L6.74708 1.43176C6.66009 1.15151 6.48914 0.90704 6.25889 0.733589C6.02864 0.560139 5.75098 0.466675 5.46596 0.466675C5.18095 0.466675 4.90329 0.560139 4.67304 0.733589C4.44279 0.90704 4.27184 1.15151 4.18484 1.43176L3.63162 3.21211H1.8102C1.52661 3.21253 1.25039 3.30547 1.02101 3.47766C0.79163 3.64985 0.620817 3.89248 0.532969 4.1709C0.445121 4.44931 0.444732 4.74927 0.531858 5.02793C0.618984 5.30659 0.789168 5.54969 1.0181 5.72251H1.01643Z" fill="#FFDF44"/>
</svg>
