<svg width="20" height="20" viewBox="0 0 20 20" fill="none" xmlns="http://www.w3.org/2000/svg">
<path d="M9.50571 0.0260487C7.54664 0.265648 5.82716 0.998539 4.38017 2.21533C2.46808 3.81735 1.28418 6.0771 1.02109 8.62343C0.955315 9.27645 0.988201 10.3335 1.09626 10.9865C1.19491 11.5879 1.41572 12.41 1.61304 12.9127C1.7023 13.1382 1.77747 13.3496 1.77747 13.3872C1.77747 13.4248 1.37344 14.6604 0.880147 16.1309C0.0485967 18.6302 -0.0124776 18.8275 0.00161645 19.0953C0.0345026 19.6168 0.382156 19.9645 0.903637 19.9973C1.17142 20.0114 1.36404 19.9551 3.86809 19.1188C5.33857 18.6255 6.57415 18.2215 6.61173 18.2215C6.64932 18.2215 6.86073 18.2967 7.08623 18.3859C7.58422 18.5785 8.40168 18.7993 9.03591 18.9121C9.69364 19.0248 11.2957 19.0248 11.9487 18.9121C13.0151 18.7242 13.8655 18.4517 14.7675 17.996C17.4595 16.6523 19.3199 14.1436 19.893 11.0946C20.0105 10.4557 20.0387 8.84893 19.94 8.16772C19.6487 6.16167 18.789 4.37642 17.4219 2.93412C15.9749 1.40727 14.1051 0.420683 12.0192 0.0871239C11.5634 0.0119553 11.2346 -0.00683784 10.5393 0.00255966C10.0507 0.00255966 9.58558 0.0166531 9.50571 0.0260487ZM11.944 2.10727C12.6346 2.24352 13.2031 2.43613 13.8749 2.76969C14.6125 3.13144 15.2138 3.56836 15.8246 4.1744C17.3843 5.73415 18.1642 7.82946 17.995 9.98586C17.9058 11.0711 17.7179 11.7993 17.2762 12.7248C16.2568 14.8624 14.3447 16.3611 11.9863 16.8638C11.4084 16.9906 10.1587 17.0376 9.55739 16.9577C8.90437 16.8685 8.1198 16.6523 7.50906 16.3846C7.19429 16.253 6.85133 16.1356 6.74328 16.1215C6.58355 16.1074 6.17951 16.2248 4.57749 16.7604C3.49225 17.1221 2.59962 17.4134 2.59023 17.4087C2.58553 17.3993 2.87681 16.5067 3.23855 15.4215C3.76473 13.8476 3.89158 13.4154 3.87748 13.2604C3.86809 13.1523 3.74594 12.8141 3.6144 12.4993C3.14459 11.4094 2.97077 10.4651 3.01305 9.22478C3.04124 8.35564 3.1258 7.87175 3.3748 7.12006C4.3144 4.32004 6.81375 2.32338 9.7782 2.01331C10.3655 1.95224 11.3614 1.99452 11.944 2.10727Z" fill="#505050"/>
</svg>
