<svg width="12" height="18" viewBox="0 0 12 18" fill="none" xmlns="http://www.w3.org/2000/svg">
<mask id="path-1-inside-1_701_173" fill="white">
<path fill-rule="evenodd" clip-rule="evenodd" d="M2 0.75C0.895431 0.75 0 1.64543 0 2.75V16.8227C0 16.9352 0.00930185 17.0457 0.0271789 17.1532C0.128165 17.7605 0.88179 17.7485 1.25846 17.2616L5.00707 12.4154C5.40741 11.8979 6.1887 11.8979 6.58904 12.4154L10.3379 17.2619C10.7145 17.7488 11.4681 17.7608 11.5692 17.1535C11.5871 17.0459 11.5964 16.9354 11.5964 16.8227V2.75C11.5964 1.64543 10.701 0.75 9.5964 0.75H2Z"/>
</mask>
<path d="M10.3379 17.2619L9.54688 17.8737L10.3379 17.2619ZM11.5692 17.1535L12.5556 17.3177L11.5692 17.1535ZM5.00707 12.4154L4.21609 11.8036L5.00707 12.4154ZM1.25846 17.2616L2.04945 17.8734L1.25846 17.2616ZM1 2.75C1 2.19771 1.44771 1.75 2 1.75V-0.25C0.343147 -0.25 -1 1.09314 -1 2.75H1ZM1 16.8227V2.75H-1V16.8227H1ZM1.01363 16.9891C1.00474 16.9356 1 16.8801 1 16.8227H-1C-1 16.9904 -0.986132 17.1557 -0.959276 17.3172L1.01363 16.9891ZM2.04945 17.8734L5.79806 13.0272L4.21609 11.8036L0.467483 16.6497L2.04945 17.8734ZM5.79806 13.0272L9.54688 17.8737L11.1288 16.65L7.38002 11.8036L5.79806 13.0272ZM10.5964 16.8227C10.5964 16.8801 10.5917 16.9357 10.5827 16.9893L12.5556 17.3177C12.5825 17.1561 12.5964 16.9906 12.5964 16.8227H10.5964ZM10.5964 2.75V16.8227H12.5964V2.75H10.5964ZM9.5964 1.75C10.1487 1.75 10.5964 2.19771 10.5964 2.75H12.5964C12.5964 1.09315 11.2533 -0.25 9.5964 -0.25V1.75ZM2 1.75H9.5964V-0.25H2V1.75ZM9.54688 17.8737C9.9204 18.3566 10.5078 18.6458 11.1053 18.6168C11.4136 18.6019 11.7489 18.4985 12.0324 18.259C12.3231 18.0135 12.4956 17.6783 12.5556 17.3177L10.5827 16.9893C10.5922 16.9324 10.6326 16.8234 10.7418 16.7312C10.8438 16.645 10.9482 16.6221 11.0084 16.6192C11.0662 16.6164 11.0981 16.6296 11.1078 16.6343C11.1198 16.64 11.1257 16.646 11.1288 16.65L9.54688 17.8737ZM5.79806 13.0272L5.79806 13.0272L7.38002 11.8036C6.57935 10.7685 5.01676 10.7685 4.21609 11.8036L5.79806 13.0272ZM-0.959276 17.3172C-0.899315 17.6778 -0.726863 18.013 -0.436232 18.2586C-0.152704 18.4982 0.182616 18.6016 0.490885 18.6165C1.08844 18.6456 1.6759 18.3563 2.04945 17.8734L0.467483 16.6497C0.470598 16.6457 0.476523 16.6398 0.488566 16.634C0.498216 16.6294 0.530123 16.6161 0.587992 16.6189C0.648147 16.6218 0.752584 16.6447 0.854633 16.731C0.963786 16.8232 1.00417 16.9322 1.01363 16.9891L-0.959276 17.3172Z" fill="black" mask="url(#path-1-inside-1_701_173)"/>
</svg>