<svg width="12" height="12" viewBox="0 0 12 12" fill="none" xmlns="http://www.w3.org/2000/svg">
<path d="M0.829264 0.0447731C0.491124 0.163122 0.251607 0.37446 0.102262 0.692876L0.012091 0.881671L0.00363749 4.73929C-0.00481603 9.03368 -0.0160874 8.73499 0.192433 9.05904C0.319236 9.25347 0.539027 9.43663 0.764454 9.5268C0.908164 9.58598 0.961703 9.58879 1.95076 9.59725L2.98491 9.6057V10.8033C2.98491 11.4598 2.99055 11.998 2.999 11.998C3.00464 11.998 3.8669 11.4598 4.91231 10.8005L6.81154 9.6057L8.95028 9.59725C11.0721 9.58879 11.0862 9.58879 11.2355 9.5268C11.461 9.43663 11.6808 9.25347 11.8076 9.05904C12.0161 8.73499 12.0048 9.03368 11.9964 4.73929L11.9879 0.881671L11.8977 0.692876C11.7738 0.427999 11.5906 0.242022 11.3285 0.112401L11.1172 0.00814152L6.04509 0.0025053C1.28857 -0.00312996 0.961703 -0.000311852 0.829264 0.0447731ZM6.59175 3.60089V5.4043H6H5.40825V3.60089V1.79747H6H6.59175V3.60089ZM6.59175 7.19363V7.79947H6H5.40825V7.19363V6.5878H6H6.59175V7.19363Z" fill="#767676"/>
</svg>
