<svg width="32" height="32" viewBox="0 0 32 32" fill="none" xmlns="http://www.w3.org/2000/svg">
<path d="M26.1149 29.0173H23.858V23.5297C23.8571 22.6766 23.5053 21.8587 22.8797 21.2554C22.2541 20.6522 21.4059 20.3129 20.5212 20.3121H11.3965C10.5118 20.3129 9.66356 20.6522 9.03798 21.2554C8.41239 21.8587 8.06054 22.6766 8.05965 23.5297V29.0173H5.80273V23.5297C5.80453 22.0997 6.39444 20.7287 7.44309 19.7175C8.49173 18.7063 9.91349 18.1375 11.3965 18.1357H20.5212C22.0042 18.1375 23.4259 18.7063 24.4746 19.7175C25.5232 20.7287 26.1132 22.0997 26.1149 23.5297V29.0173Z" fill="#FC9763"/>
<path d="M15.9582 15.9592C14.6191 15.9592 13.3101 15.5763 12.1966 14.8589C11.0832 14.1415 10.2154 13.1218 9.70289 11.9288C9.19043 10.7358 9.05635 9.42305 9.3176 8.15657C9.57885 6.89008 10.2237 5.72673 11.1706 4.81365C12.1175 3.90056 13.3239 3.27874 14.6373 3.02682C15.9507 2.7749 17.3121 2.9042 18.5493 3.39835C19.7865 3.89251 20.8439 4.72934 21.5879 5.80302C22.3319 6.87669 22.729 8.139 22.729 9.4303C22.7272 11.1613 22.0133 12.821 20.7439 14.045C19.4745 15.2691 17.7534 15.9575 15.9582 15.9592ZM15.9582 5.07768C15.0655 5.07768 14.1928 5.33296 13.4505 5.81123C12.7082 6.2895 12.1297 6.96928 11.788 7.76462C11.4464 8.55996 11.357 9.43512 11.5311 10.2794C11.7053 11.1238 12.1352 11.8993 12.7665 12.5081C13.3978 13.1168 14.202 13.5313 15.0776 13.6993C15.9532 13.8672 16.8608 13.781 17.6856 13.4516C18.5104 13.1222 19.2154 12.5643 19.7113 11.8485C20.2073 11.1327 20.4721 10.2912 20.4721 9.4303C20.4721 8.27591 19.9965 7.1688 19.15 6.35253C18.3035 5.53626 17.1554 5.07768 15.9582 5.07768Z" fill="#FC9763"/>
</svg>
