<svg width="30" height="27" viewBox="0 0 25 27" fill="none" xmlns="http://www.w3.org/2000/svg">
<path d="M19.1808 0.120188C17.8816 0.458853 16.8225 1.33323 16.2314 2.55243C15.8619 3.31597 15.7449 3.89478 15.788 4.73221C15.8065 5.08935 15.8434 5.45264 15.8619 5.53885C15.8988 5.68663 15.7511 5.77899 12.2105 7.79868C10.1785 8.96246 8.49129 9.91072 8.45434 9.91072C8.4174 9.91072 8.28809 9.7691 8.15878 9.59669C7.70312 8.97477 6.7487 8.32207 5.89279 8.05114C5.65265 7.97109 5.25241 7.92183 4.77827 7.8972C4.1502 7.86641 3.95316 7.88488 3.51597 7.99572C2.13052 8.34054 1.07757 9.17797 0.467975 10.4341C0.123151 11.1361 0 11.6718 0 12.46C0 14.5351 1.29309 16.2469 3.33125 16.8749C3.70686 16.9919 3.93469 17.0227 4.53197 17.0227C5.31398 17.0227 5.68344 16.955 6.30535 16.7025C6.71791 16.5363 7.27825 16.1976 7.51839 15.9698L7.67233 15.8281L11.7856 18.1803L15.8927 20.5325L15.8496 20.748C15.8188 20.865 15.8003 21.3392 15.8065 21.7948C15.8065 22.5337 15.825 22.6815 15.9789 23.1187C16.453 24.5042 17.5983 25.6556 18.9345 26.0805C20.1907 26.4746 21.6254 26.333 22.7276 25.6926C22.9493 25.5633 23.368 25.2184 23.6574 24.929C24.1254 24.4734 24.23 24.3194 24.501 23.7591C24.9135 22.9094 25.0305 22.3552 24.9936 21.4623C24.9012 19.4365 23.5342 17.7432 21.5577 17.2013C21.0035 17.0473 19.772 17.0473 19.2178 17.2013C18.6698 17.3491 18.017 17.6693 17.5922 17.9956L17.2412 18.2727L13.1957 15.9636C10.9728 14.689 9.12552 13.6299 9.10089 13.6053C9.0701 13.5806 9.08242 13.3343 9.13168 13.0572L9.21173 12.5585L13.2388 10.2555L17.2658 7.94646L17.5183 8.16197C18.1525 8.71 19.3348 9.11024 20.3015 9.11024C21.0835 9.11024 21.6685 8.97477 22.3273 8.65458C23.9529 7.84794 24.8889 6.34549 24.8889 4.54132C24.8951 2.43543 23.4973 0.631266 21.4714 0.120188C20.8249 -0.0399094 19.7966 -0.0399094 19.1808 0.120188ZM21.1697 2.79873C22.4074 3.35907 22.6845 5.04624 21.6993 5.97604C21.2806 6.37628 20.985 6.49327 20.3569 6.49327C19.8951 6.49327 19.7535 6.46864 19.501 6.34549C18.5281 5.8652 18.1279 4.74452 18.5651 3.76547C19.0207 2.76794 20.1722 2.33691 21.1697 2.79873ZM5.40635 10.6804C6.64402 11.2408 6.92111 12.9279 5.9359 13.8577C5.56644 14.2087 5.21546 14.3626 4.68591 14.3934C4.08863 14.4242 3.63912 14.2641 3.23888 13.8762C2.09973 12.774 2.62312 10.9144 4.17483 10.5265C4.5135 10.4464 5.03689 10.508 5.40635 10.6804ZM21.0035 19.8059C21.4037 19.9352 21.8778 20.354 22.0995 20.7727C22.2411 21.0436 22.2658 21.1606 22.2658 21.6409C22.2658 22.1027 22.2411 22.2443 22.118 22.4968C21.65 23.4512 20.5109 23.8761 19.5811 23.4451C18.8175 23.0941 18.3927 22.4475 18.3927 21.6286C18.3927 21.2468 18.4173 21.136 18.602 20.7727C18.836 20.3109 19.2301 19.9599 19.6796 19.7998C20.0183 19.6766 20.6155 19.6828 21.0035 19.8059Z" fill="#068FFF"/>
</svg>
