<svg width="20" height="20" viewBox="0 0 20 20" fill="none" xmlns="http://www.w3.org/2000/svg">
<path fill-rule="evenodd" clip-rule="evenodd" d="M12.6948 14.1266C8.66033 14.1266 5.3897 10.9642 5.3897 7.06328C5.3897 3.16234 8.66033 0 12.6948 0C16.7294 0 20 3.16234 20 7.06328C20 10.9642 16.7294 14.1266 12.6948 14.1266ZM12.5806 12.1399C9.74383 12.1399 7.44417 9.91643 7.44417 7.17358C7.44417 4.43073 9.74383 2.20721 12.5806 2.20721C15.4174 2.20721 17.717 4.43073 17.717 7.17358C17.717 9.91643 15.4174 12.1399 12.5806 12.1399Z" fill="black"/>
<rect width="2.69446" height="10.5183" transform="matrix(-0.718908 -0.695105 -0.718908 0.695105 9.49878 12.6887)" fill="black"/>
</svg>
