<svg width="68" height="73" viewBox="0 0 68 73" fill="none" xmlns="http://www.w3.org/2000/svg">
<path fill-rule="evenodd" clip-rule="evenodd" d="M41.3329 65.0574C41.3434 65.0462 41.3539 65.035 41.3644 65.0238L54.3278 51.1262L54.3277 51.1261L57.7266 47.4823C63.3618 41.4409 63.3735 31.6351 57.7527 25.5804C52.1319 19.5256 43.0071 19.5147 37.3719 25.5561L33.9731 29.1999L30.5789 25.5437C24.9591 19.49 15.8359 19.4791 10.2017 25.5194C4.56745 31.5597 4.55576 41.3638 10.1756 47.4175L26.5034 65.006C26.5145 65.018 26.5256 65.0299 26.5368 65.0418L29.246 67.9602C31.8298 70.7435 36.0244 70.7485 38.6148 67.9714L41.3329 65.0574Z" fill="#FC9763" fill-opacity="0.35"/>
<ellipse cx="33.928" cy="44.1776" rx="7.7752" ry="7.77524" fill="white"/>
</svg>
