<svg width="200" height="200" viewBox="0 0 75 73" fill="none" xmlns="http://www.w3.org/2000/svg">
<rect width="75" height="73" rx="20" fill="#D9D9D9" fill-opacity="0.5"/>
<path fill-rule="evenodd" clip-rule="evenodd" d="M24.8627 20.6373C23.1579 20.8592 21.7751 22.1451 21.3508 23.9056C21.2044 24.495 21.2044 24.7246 21.2191 36.0604L21.241 47.6182L21.4313 48.1234C21.9507 49.5165 22.7921 50.3814 24.131 50.8866L24.6066 51.0626H37.7031H50.7997L51.2167 50.8483C51.4435 50.7335 51.7362 50.5115 51.8606 50.3661C51.9849 50.213 53.5507 47.0212 55.3505 43.2707C58.3503 36.9942 58.6137 36.4049 58.643 35.9839C58.7088 35.1113 58.2113 34.2311 57.4357 33.856L57.0919 33.6876L43.849 33.6647C42.9981 33.6638 42.2 33.6628 41.4513 33.662C30.8147 33.6494 30.1392 33.6486 29.7177 33.9754C29.6892 33.9976 29.6618 34.0213 29.6325 34.0465C29.6017 34.0731 29.569 34.1014 29.5306 34.1316C29.238 34.3612 29.0477 34.7209 26.7869 39.4283L24.3579 44.48L24.3725 34.476L24.3871 24.4797L24.57 24.273C24.5732 24.2693 24.5764 24.2657 24.5795 24.2621C24.6325 24.2012 24.6776 24.1493 24.7293 24.1052C25.0257 23.8519 25.5386 23.8519 28.9928 23.852C29.0659 23.852 29.1403 23.852 29.216 23.852C32.6913 23.852 33.2401 23.8673 33.4303 23.9745C33.5547 24.0357 34.5936 25.0154 35.7496 26.1483L37.8495 28.2149H43.1539C43.4092 28.2149 43.6529 28.2148 43.8855 28.2148C48.1389 28.214 48.6981 28.2139 48.9601 28.4929C48.9998 28.5352 49.0326 28.5838 49.0704 28.6398C49.0828 28.6581 49.0957 28.6772 49.1096 28.6971C49.2486 28.8961 49.2632 29.0415 49.2852 30.2126L49.3071 31.5062L50.8582 31.4909L52.4093 31.4679V30.0519C52.402 28.9191 52.38 28.544 52.2703 28.1766C52.0654 27.4571 51.6703 26.7453 51.2167 26.2707C50.7338 25.7732 50.6168 25.6814 50.0973 25.4135C50.0765 25.4025 50.0563 25.3918 50.0366 25.3814C49.9111 25.3149 49.8058 25.2591 49.6966 25.2123C49.1286 24.9683 48.4571 24.9654 44.2901 24.9476L44.0465 24.9466L39.1152 24.9159L37.2642 23.1402C35.8813 21.8007 35.3033 21.2955 34.9521 21.1118C34.9325 21.1015 34.9133 21.0913 34.8945 21.0814C34.7179 20.9881 34.5766 20.9135 34.4292 20.8535C33.8377 20.6129 33.1496 20.6094 29.699 20.5923L29.5087 20.5913C27.2113 20.5837 25.1261 20.6066 24.8627 20.6373ZM37.8614 41.9821C37.8614 41.4299 38.3091 40.9821 38.8614 40.9821H41.0703V38.7731C41.0703 38.2208 41.5181 37.7731 42.0703 37.7731C42.6226 37.7731 43.0703 38.2208 43.0703 38.7731V40.9821H45.279C45.8313 40.9821 46.279 41.4299 46.279 41.9821C46.279 42.5344 45.8313 42.9821 45.279 42.9821H43.0703V45.1907C43.0703 45.7429 42.6226 46.1907 42.0703 46.1907C41.5181 46.1906 41.0703 45.7429 41.0703 45.1906V42.9821H38.8614C38.3091 42.9821 37.8614 42.5344 37.8614 41.9821Z" fill="#FC9763"/>
</svg>
