<svg width="10" height="8" viewBox="0 0 10 8" fill="none" xmlns="http://www.w3.org/2000/svg">
<path d="M9.0704 0.0286522C9.01454 0.0487638 8.94079 0.084517 8.90281 0.111332C8.86705 0.135912 7.65144 1.33812 6.20567 2.78389L3.57333 5.41176L2.35101 4.19168C1.38791 3.23304 1.10188 2.96042 1.01473 2.91797C0.923112 2.87551 0.867248 2.86434 0.713062 2.86434C0.53653 2.86434 0.511949 2.87104 0.377874 2.94478C0.0426868 3.12802 -0.0913882 3.52354 0.0650326 3.8699C0.138774 4.03079 3.10407 6.99832 3.27166 7.07876C3.43031 7.15474 3.71634 7.15474 3.875 7.07876C3.96661 7.0363 4.5409 6.47095 6.93861 4.07325C9.33185 1.68001 9.90167 1.10125 9.94412 1.00963C10.0201 0.850979 10.0179 0.567187 9.94189 0.406297C9.87262 0.263284 9.73631 0.129209 9.59776 0.062171C9.45028 -0.0048666 9.20895 -0.0205083 9.0704 0.0286522Z" fill="white"/>
</svg>
