<svg width="22" height="18" viewBox="0 0 22 18" fill="none" xmlns="http://www.w3.org/2000/svg">
<path d="M15.234 16.8571V15.0674C15.234 14.1181 14.8569 13.2077 14.1856 12.5364C13.5143 11.8651 12.6039 11.488 11.6546 11.488H4.49587C3.54656 11.488 2.63614 11.8651 1.96488 12.5364C1.29361 13.2077 0.916504 14.1181 0.916504 15.0674V16.8571" stroke="black" stroke-linecap="round" stroke-linejoin="round"/>
<path d="M8.07546 7.90873C10.0523 7.90873 11.6548 6.30619 11.6548 4.32937C11.6548 2.35254 10.0523 0.75 8.07546 0.75C6.09863 0.75 4.49609 2.35254 4.49609 4.32937C4.49609 6.30619 6.09863 7.90873 8.07546 7.90873Z" stroke="black" stroke-linecap="round" stroke-linejoin="round"/>
<path d="M20.6032 16.857V15.0673C20.6026 14.2742 20.3387 13.5038 19.8528 12.877C19.3669 12.2502 18.6866 11.8025 17.9187 11.6042" stroke="black" stroke-linecap="round" stroke-linejoin="round"/>
<path d="M14.3391 0.866211C15.109 1.06335 15.7915 1.51112 16.2788 2.13895C16.7661 2.76678 17.0307 3.53895 17.0307 4.33372C17.0307 5.12849 16.7661 5.90066 16.2788 6.52849C15.7915 7.15632 15.109 7.6041 14.3391 7.80123" stroke="black" stroke-linecap="round" stroke-linejoin="round"/>
</svg>
