<svg width="597" height="597" viewBox="0 0 597 597" fill="none" xmlns="http://www.w3.org/2000/svg">
<path d="M471.666 2.86681C468.066 4.46681 450.6 21.2668 419.533 52.4668C374.2 98.0668 372.6 99.9335 371 106.6C366.2 127.4 384.466 145.267 405.266 140.2C411 138.734 414.066 136.334 433.4 117.267L455 95.8002V176.2C455 230.334 455.533 258.334 456.466 262.334C462.466 286.334 496.333 290.334 507.933 268.467L511 262.6V179.4C511 131.267 511.533 96.3335 512.2 96.3335C512.866 96.3335 521.4 104.734 531.133 115.134C555 140.334 561.933 144.067 576.6 139.8C584.2 137.667 590.333 132.334 594.2 124.734C597.133 119 596.866 107.667 593.8 101C590.333 93.6668 501.533 5.26681 494.733 2.33348C488.066 -0.333185 478.2 -0.199852 471.666 2.86681Z" fill="#FC9763"/>
<path d="M63.2664 88.3334C49.5331 91.9334 38.5998 98.2 27.2664 108.867C16.0664 119.533 9.9331 128.867 4.7331 143.667L0.999764 154.333L0.599764 336.6C0.199764 540.6 -0.200236 529.133 9.79976 549.667C17.5331 565.267 31.3998 579.133 46.9998 586.867C67.5331 596.867 56.0664 596.467 260.066 596.067L442.333 595.667L453.666 591.533C468.2 586.467 478.066 579.8 488.733 568.333C499 557.267 504.866 546.6 508.333 532.867C510.866 523.133 511 517.933 511 442.333V362.067L507.933 356.2C503.533 347.933 495.666 342.733 486.333 341.933C467.666 340.333 455 353.533 455 374.467V380.867L428.733 354.733C405.133 331.533 401.266 328.2 392.333 324.067C379.133 317.8 370.2 315.8 355.666 315.933C332.333 316.2 317.533 323.267 295.933 344.2L281.533 358.2L245.266 322.2C225.266 302.333 206.466 284.2 203.4 281.8C195.133 275.533 179.533 268.733 169 266.867C149.933 263.533 127.8 267.8 111.933 277.8C108.2 280.2 94.0664 293 80.7331 306.2L56.3331 330.2V248.2C56.3331 195.267 56.8664 164.6 57.7998 161.267C59.5331 154.733 66.1998 147.267 72.9998 144.2C78.0664 141.933 84.5998 141.667 181.666 141.667C238.866 141.667 287.4 141 290.2 140.333C301.933 137.667 310.6 127.8 311.933 115.8C313.266 104.867 306.733 93.6667 296.2 88.2C291.266 85.8 287.4 85.6667 182.066 85.8C79.1331 85.8 72.4664 85.9334 63.2664 88.3334ZM165.533 323.667C167.4 324.6 217.266 373.8 276.333 432.867L383.666 540.333H231.666H79.6664L72.9998 537.133C65.1331 533.533 62.7331 531 59.1331 523C56.4664 517.267 56.3331 514.467 56.3331 463.667V410.2L99.3998 366.867C130.866 335 143.533 323.133 147 322.067C152.466 320.2 160.466 321 165.533 323.667ZM365.266 372.333C367.266 373.133 388.333 393.133 412.066 416.733L455 459.667V489C454.866 514.2 454.6 519 452.6 522.6L450.333 527L385.666 462.333L321 397.667L332.333 386.2C338.6 379.933 345.533 373.933 347.666 372.867C352.466 370.733 360.2 370.467 365.266 372.333Z" fill="#FC9763"/>
</svg>
