<svg width="32" height="32" viewBox="0 0 32 32" fill="none" xmlns="http://www.w3.org/2000/svg">
<path d="M27.3332 5.31167C26.9431 4.91679 26.4576 4.62922 25.9238 4.47672C25.39 4.32423 24.8259 4.31196 24.286 4.44112L6.87323 8.10829C5.87045 8.2458 4.92597 8.66052 4.14617 9.30574C3.36637 9.95096 2.78222 10.8011 2.4595 11.7603C2.13678 12.7195 2.08831 13.7498 2.31954 14.7351C2.55078 15.7204 3.05254 16.6216 3.76831 17.3372L5.63801 19.2056C5.73921 19.3067 5.81946 19.4268 5.87417 19.559C5.92889 19.6912 5.95699 19.8329 5.95688 19.976V23.4234C5.95928 23.9081 6.07088 24.386 6.28337 24.8217L6.27467 24.8293L6.30296 24.8576C6.62185 25.4987 7.14267 26.0171 7.78522 26.3332L7.81352 26.3614L7.82114 26.3527C8.25685 26.5652 8.73484 26.6768 9.2196 26.6792H12.6673C12.9558 26.679 13.2325 26.7933 13.4368 26.9969L15.3054 28.8653C15.8066 29.372 16.4031 29.7745 17.0605 30.0496C17.718 30.3247 18.4235 30.467 19.1362 30.4682C19.7301 30.4675 20.32 30.3705 20.8829 30.181C21.8335 29.8689 22.6779 29.2974 23.3209 28.531C23.964 27.7646 24.38 26.8337 24.5222 25.8435L28.1952 8.39448C28.331 7.85 28.323 7.27956 28.1719 6.7391C28.0208 6.19865 27.7318 5.70675 27.3332 5.31167ZM7.17904 17.6691L5.30826 15.8006C4.87263 15.3756 4.56731 14.835 4.42813 14.2425C4.28896 13.65 4.32169 13.0301 4.52251 12.4556C4.7172 11.8661 5.07711 11.345 5.55943 10.9542C6.04176 10.5633 6.6262 10.3192 7.24325 10.2509L24.483 6.62184L8.1313 22.9739V19.976C8.13295 19.5476 8.04964 19.1232 7.88619 18.7272C7.72273 18.3312 7.48238 17.9716 7.17904 17.6691ZM22.3837 25.4713C22.3001 26.0724 22.0506 26.6382 21.6633 27.1054C21.276 27.5725 20.7661 27.9225 20.1909 28.116C19.6157 28.3095 18.9979 28.3388 18.4069 28.2007C17.816 28.0627 17.2752 27.7626 16.8453 27.3343L14.9734 25.4626C14.6713 25.1588 14.3119 24.918 13.9161 24.754C13.5202 24.59 13.0958 24.5061 12.6673 24.5072H9.66907L26.0229 8.16052L22.3837 25.4713Z" fill="#FC9763"/>
</svg>
