<svg style="transition: .3s" width="21" height="20" viewBox="0 0 22 20" fill="none" xmlns="http://www.w3.org/2000/svg">
<path d="M3.76011 1.61045C4.26105 1.33258 5.0203 1.09776 5.63866 1.01949C5.71302 1.01166 6.04177 1.01166 6.36269 1.01949C7.46634 1.04688 8.38213 1.34432 9.34489 1.98224C9.66973 2.1975 9.91237 2.40883 10.3898 2.89021L11.0082 3.5164L11.4387 3.0585C12.4563 1.97442 13.3681 1.42259 14.6401 1.12907C15.1528 1.00775 15.9903 0.964695 16.4991 1.03123C17.5518 1.16821 18.4402 1.60653 19.2699 2.40492C20.1231 3.21896 20.6593 4.18563 20.9097 5.3519C21.0232 5.88807 21.0311 6.90171 20.9254 7.45354C20.7023 8.59633 20.2131 9.52778 19.3639 10.4162C16.8904 12.9992 11.8144 18.22 11.6931 18.3061C11.2039 18.6388 10.5738 18.5801 10.112 18.1535C9.95934 18.0087 3.37265 11.195 2.56644 10.3457C1.79154 9.52778 1.32581 8.65112 1.09099 7.55921C0.969669 6.9839 0.969669 5.88808 1.09099 5.31277C1.19666 4.82747 1.36886 4.32653 1.57629 3.91559C2.06941 2.93326 2.85605 2.10357 3.76011 1.61045Z" stroke-width="2"/>
</svg>