<svg width="136" height="26" viewBox="0 0 136 26" fill="none" xmlns="http://www.w3.org/2000/svg">
<path d="M7.5 8.05C7.47 9.16 8.85 9.88 11.25 10.69L12.72 11.2C16.23 12.46 18.54 15.07 18.3 18.94C18.03 23.2 14.67 25.69 9.21 25.69C6.54 25.69 3.87 25.15 2.25 23.86C1.11 22.93 0.57 21.31 1.47 19.93C1.92 19.27 2.79 18.88 3.6 18.85C4.65 18.82 5.16 19.3 5.73 19.6C6.42 20.02 7.35 20.38 9.39 20.38C11.04 20.38 12.03 19.81 12.06 18.49C12.09 17.35 10.11 16.48 7.62 15.7C7.14 15.55 6.54 15.31 6.18 15.16C1.65 13.27 0.66 9.16 1.68 6.01C2.73 2.8 5.67 0.939999 9.78 0.939999C12.9 0.939999 14.37 1.54 15.48 2.14C16.86 2.89 17.82 4.39 17.37 5.83C16.98 7.06 15.93 7.54 14.79 7.54C14.34 7.54 13.68 7.36 13.41 7.15C12.69 6.67 11.64 6.25 9.84 6.25C8.4 6.25 7.53 6.82 7.5 8.05ZM22.7944 16.6V10.03C22.7944 3.13 28.3444 0.879999 32.8444 0.879999C37.2544 0.879999 42.8944 3.13 42.8944 10.03V16.6C42.8944 23.5 37.2544 25.75 32.8444 25.75C28.4344 25.75 22.7944 23.5 22.7944 16.6ZM36.7744 16.78V9.85C36.7744 7.21 34.7344 6.01 32.8444 6.01C30.9544 6.01 28.9144 7.21 28.9144 9.85V16.78C28.9144 19.18 31.1344 20.62 32.8444 20.62C34.5544 20.62 36.7744 19.18 36.7744 16.78ZM64.7016 3.94L67.6116 17.05L70.6116 3.13C70.9716 1.3 72.5916 0.73 74.1216 0.969998C75.5616 1.21 76.7616 2.5 76.3716 4.3L71.6316 25.18H65.0316L61.5216 10.18L58.0416 25.18H51.8916L46.9416 4.33C46.5516 2.5 47.7816 1.21 49.2516 0.969998C50.7816 0.73 52.4316 1.3 52.7916 3.13L55.5816 16.27L58.3416 3.94C58.8516 2.14 60.4116 1.66 61.5216 1.66C62.6316 1.66 64.1916 2.14 64.7016 3.94ZM80.6937 25.18V3.91C80.6937 1.84 82.1337 0.909999 83.8137 0.909999C85.4937 0.909999 86.9337 1.84 86.9337 3.91V25.18H80.6937ZM104.261 25.18H98.0208V6.34H93.4308C91.6908 6.34 91.0008 4.9 91.0008 3.67C91.0008 2.44 91.6608 1.09 93.4308 1.09H108.851C110.621 1.09 111.281 2.44 111.281 3.67C111.281 4.9 110.591 6.34 108.851 6.34H104.261V25.18ZM129.214 25.18V15.49H121.624V25.18H115.444V3.97C115.444 1.96 116.914 0.909999 118.534 0.909999C120.154 0.909999 121.624 1.96 121.624 3.97V10.27H129.214V3.97C129.214 1.96 130.684 0.909999 132.304 0.909999C133.924 0.909999 135.394 1.96 135.394 3.97V25.18H129.214Z" fill="#948484"/>
</svg>
